<svg width="1110" height="252" viewBox="0 0 1110 252" fill="none" xmlns="http://www.w3.org/2000/svg">
<path d="M759.092 248.161L666.599 3.83936L729.424 3.83936L791.202 181.147L859.962 3.83936L916.155 3.83936L985.962 180.449L1047.39 3.83936L1109.17 3.83936L1016.68 248.161H959.435L887.186 69.1081L815.286 248.161H759.092Z" fill="white"/>
<path d="M494.729 252C475.183 252 457.15 250.138 440.629 246.416C424.341 242.693 409.914 237.224 397.349 230.011C384.784 222.798 374.08 214.072 365.238 203.834C356.629 193.596 349.997 181.961 345.343 168.931C340.922 155.9 338.712 141.706 338.712 126.349C338.712 110.759 340.922 96.4487 345.343 83.4183C349.997 70.3878 356.629 58.7535 365.238 48.5152C374.08 38.0443 384.784 29.2022 397.349 21.9889C409.914 14.7756 424.341 9.30748 440.629 5.58448C457.15 1.86149 475.183 0 494.729 0C514.507 0 532.54 1.86149 548.828 5.58448C565.116 9.30748 579.543 14.7756 592.108 21.9889C604.906 29.2022 615.609 38.0443 624.219 48.5152C633.061 58.7535 639.693 70.3878 644.114 83.4183C648.767 96.4487 651.094 110.759 651.094 126.349C651.094 141.706 648.767 155.9 644.114 168.931C639.693 181.961 633.061 193.596 624.219 203.834C615.609 214.072 604.906 222.798 592.108 230.011C579.543 237.224 565.116 242.693 548.828 246.416C532.54 250.138 514.507 252 494.729 252ZM494.729 205.579C507.526 205.579 519.044 204.415 529.283 202.089C539.521 199.762 548.479 196.504 556.158 192.316C564.069 187.895 570.584 182.543 575.704 176.26C580.823 169.745 584.662 162.416 587.222 154.271C589.781 145.895 591.061 136.587 591.061 126.349C591.061 116.111 589.781 106.803 587.222 98.4266C584.662 90.0499 580.823 82.6039 575.704 76.0886C570.584 69.5734 564.069 64.2216 556.158 60.0332C548.479 55.6122 539.521 52.2382 529.283 49.9114C519.044 47.5845 507.526 46.4211 494.729 46.4211C482.163 46.4211 470.645 47.5845 460.175 49.9114C449.936 52.2382 440.978 55.6122 433.299 60.0332C425.62 64.2216 419.222 69.5734 414.102 76.0886C408.983 82.6039 405.144 90.0499 402.584 98.4266C400.025 106.803 398.745 116.111 398.745 126.349C398.745 136.587 400.025 145.895 402.584 154.271C405.144 162.416 408.983 169.745 414.102 176.26C419.222 182.543 425.62 187.895 433.299 192.316C440.978 196.504 449.936 199.762 460.175 202.089C470.645 204.415 482.163 205.579 494.729 205.579Z" fill="white"/>
<path d="M0 248.161L0 3.83936L58.9861 3.83936L58.9861 99.1247L224.776 99.1247V3.83936L283.762 3.83936V248.161L224.776 248.161V145.895H58.9861L58.9861 248.161H0Z" fill="white"/>
</svg>
