<svg width="390" height="172" viewBox="0 0 390 172" fill="none" xmlns="http://www.w3.org/2000/svg">
<path d="M358.089 171.999C351.883 171.999 346.159 171.408 340.914 170.226C335.743 169.045 331.163 167.309 327.174 165.019C323.185 162.729 319.787 159.959 316.98 156.709C314.247 153.458 312.141 149.765 310.664 145.628C309.26 141.492 308.559 136.986 308.559 132.11C308.559 127.161 309.26 122.618 310.664 118.482C312.141 114.345 314.247 110.652 316.98 107.402C319.787 104.077 323.185 101.27 327.174 98.9806C331.163 96.6906 335.743 94.9547 340.914 93.7728C346.159 92.5909 351.883 92 358.089 92C364.368 92 370.092 92.5909 375.263 93.7728C380.434 94.9547 385.014 96.6906 389.003 98.9806C393.066 101.27 396.464 104.077 399.197 107.402C402.004 110.652 404.11 114.345 405.513 118.482C406.991 122.618 407.729 127.161 407.729 132.11C407.729 136.986 406.991 141.492 405.513 145.628C404.11 149.765 402.004 153.458 399.197 156.709C396.464 159.959 393.066 162.729 389.003 165.019C385.014 167.309 380.434 169.045 375.263 170.226C370.092 171.408 364.368 171.999 358.089 171.999ZM358.089 157.263C362.151 157.263 365.808 156.893 369.058 156.155C372.309 155.416 375.153 154.382 377.59 153.052C380.102 151.649 382.17 149.95 383.795 147.955C385.421 145.887 386.639 143.56 387.452 140.975C388.265 138.315 388.671 135.361 388.671 132.11C388.671 128.86 388.265 125.906 387.452 123.246C386.639 120.587 385.421 118.223 383.795 116.155C382.17 114.087 380.102 112.388 377.59 111.058C375.153 109.655 372.309 108.583 369.058 107.845C365.808 107.106 362.151 106.737 358.089 106.737C354.1 106.737 350.443 107.106 347.119 107.845C343.869 108.583 341.025 109.655 338.587 111.058C336.149 112.388 334.118 114.087 332.493 116.155C330.867 118.223 329.649 120.587 328.836 123.246C328.023 125.906 327.617 128.86 327.617 132.11C327.617 135.361 328.023 138.315 328.836 140.975C329.649 143.56 330.867 145.887 332.493 147.955C334.118 149.95 336.149 151.649 338.587 153.052C341.025 154.382 343.869 155.416 347.119 156.155C350.443 156.893 354.1 157.263 358.089 157.263Z" fill="white"/>
<path d="M272.451 170.781V93.2195H291.177V170.781H272.451Z" fill="white"/>
<path d="M163.5 170.781V93.2195H209.817C215.505 93.2195 220.676 93.8104 225.329 94.9923C230.057 96.1003 234.231 97.7624 237.85 99.9784C241.47 102.121 244.499 104.78 246.936 107.956C249.374 111.059 251.221 114.678 252.477 118.815C253.732 122.878 254.36 127.347 254.36 132.222C254.36 137.023 253.732 141.455 252.477 145.518C251.221 149.581 249.374 153.164 246.936 156.266C244.499 159.369 241.47 162.028 237.85 164.244C234.231 166.386 230.057 168.011 225.329 169.119C220.676 170.227 215.505 170.781 209.817 170.781H163.5ZM210.481 156.044C213.806 156.044 216.76 155.712 219.346 155.047C222.005 154.309 224.332 153.311 226.327 152.056C228.321 150.726 229.946 149.101 231.202 147.18C232.532 145.26 233.529 143.044 234.194 140.532C234.932 138.021 235.302 135.251 235.302 132.222C235.302 129.119 234.932 126.312 234.194 123.801C233.529 121.216 232.532 118.963 231.202 117.042C229.946 115.048 228.321 113.386 226.327 112.056C224.332 110.726 222.005 109.729 219.346 109.064C216.76 108.326 213.806 107.956 210.481 107.956H182.226V156.044H210.481Z" fill="white"/>
<path d="M249.648 44.1C249.648 49.7879 248.651 54.8848 246.656 59.3907C244.735 63.8228 241.928 67.5901 238.235 70.6926C234.541 73.7212 229.998 76.048 224.606 77.6731C219.287 79.2244 213.193 80 206.323 80C199.453 80 193.322 79.2244 187.929 77.6731C182.611 76.048 178.068 73.7212 174.3 70.6926C170.607 67.5901 167.8 63.8228 165.879 59.3907C163.958 54.8848 162.998 49.7879 162.998 44.1V1.21948L181.724 1.21948V43.9892C181.724 48.7168 182.648 52.6687 184.494 55.8451C186.341 58.9475 189.074 61.3113 192.694 62.9364C196.387 64.4877 200.893 65.2633 206.212 65.2633C210.349 65.2633 213.932 64.8201 216.96 63.9337C220.063 63.0472 222.648 61.7176 224.717 59.9448C226.785 58.0981 228.336 55.882 229.37 53.2966C230.405 50.6374 230.922 47.5349 230.922 43.9892V1.21948L249.648 1.21948V44.1Z" fill="white"/>
<path d="M97.5105 78.7812V15.9562L63.7148 15.9562V1.21948L150.365 1.21948V15.9562L116.237 15.9562V78.7812H97.5105Z" fill="white"/>
<path d="M-32 55.1796L-13.0523 52.5203C-12.3875 55.4751 -10.9839 57.9866 -8.8417 60.0549C-6.62559 62.0493 -3.67078 63.5637 0.0227274 64.5978C3.71624 65.5581 8.18538 66.0382 13.4302 66.0382C17.7885 66.0382 21.519 65.8536 24.6215 65.4842C27.7979 65.041 30.3464 64.4501 32.2671 63.7114C34.2616 62.8988 35.702 61.9385 36.5885 60.8305C37.4749 59.7225 37.9181 58.4298 37.9181 56.9524C37.9181 55.1057 37.401 53.5914 36.3669 52.4095C35.4066 51.2276 33.6706 50.3043 31.159 49.6395C28.7213 48.9008 25.2863 48.3098 20.8541 47.8666L-0.420492 46.4262C-5.29593 45.983 -9.5804 45.2074 -13.2739 44.0994C-16.8935 42.9175 -19.9222 41.4401 -22.3599 39.6673C-24.7238 37.8206 -26.5336 35.6414 -27.7894 33.1299C-28.9713 30.6184 -29.5623 27.7006 -29.5623 24.3765C-29.5623 20.6092 -28.6758 17.2482 -26.903 14.2935C-25.0562 11.2649 -22.3599 8.67952 -18.8142 6.53734C-15.2684 4.39516 -10.9101 2.77006 -5.73915 1.66203C-0.568234 0.554011 5.41525 0 12.2113 0C20.7803 0 28.0195 0.886418 33.9291 2.65926C39.9126 4.35823 44.6403 6.94362 48.1122 10.4154C51.5841 13.8134 53.8741 18.0977 54.9821 23.2685L36.0344 26.0386C35.0003 21.9019 32.5625 18.8733 28.7213 16.9528C24.9539 14.9583 19.3398 13.9611 11.8789 13.9611C7.81603 13.9611 4.34413 14.1827 1.4632 14.6259C-1.41774 14.9953 -3.74465 15.5493 -5.51754 16.288C-7.29042 17.0266 -8.58315 17.95 -9.39572 19.058C-10.2083 20.166 -10.6146 21.3849 -10.6146 22.7145C-10.6146 24.5612 -10.0975 26.0386 -9.0633 27.1466C-7.95525 28.2546 -6.2193 29.141 -3.85546 29.8058C-1.49161 30.4707 1.68481 31.0247 5.6738 31.4679L27.3916 32.9083C34.1138 33.5731 39.6541 34.792 44.0124 36.5648C48.3708 38.3376 51.5841 40.7753 53.6525 43.8777C55.7947 46.9063 56.8658 50.6736 56.8658 55.1796C56.8658 59.0946 55.9794 62.6034 54.2065 65.7058C52.4336 68.7344 49.7004 71.3198 46.0069 73.462C42.3873 75.6042 37.8443 77.2293 32.3779 78.3373C26.9115 79.4453 20.4848 79.9993 13.0978 79.9993C6.37557 79.9993 0.392076 79.5192 -4.85271 78.5589C-10.0236 77.5247 -14.4928 76.0105 -18.2601 74.016C-21.9537 71.9477 -24.9454 69.3623 -27.2354 66.2598C-29.5254 63.0835 -31.1136 59.3901 -32 55.1796Z" fill="white"/>
</svg>
