<svg width="1724" height="252" viewBox="0 0 1724 252" fill="none" xmlns="http://www.w3.org/2000/svg">
<path d="M1567.56 252C1548.01 252 1529.98 250.138 1513.46 246.416C1497.17 242.693 1482.74 237.224 1470.18 230.011C1457.61 222.798 1446.91 214.072 1438.07 203.834C1429.46 193.596 1422.83 181.961 1418.17 168.931C1413.75 155.9 1411.54 141.706 1411.54 126.349C1411.54 110.759 1413.75 96.4487 1418.17 83.4183C1422.83 70.3878 1429.46 58.7535 1438.07 48.5152C1446.91 38.0443 1457.61 29.2022 1470.18 21.9889C1482.74 14.7756 1497.17 9.30748 1513.46 5.58448C1529.98 1.86149 1548.01 0 1567.56 0C1587.34 0 1605.37 1.86149 1621.66 5.58448C1637.95 9.30748 1652.37 14.7756 1664.94 21.9889C1677.74 29.2022 1688.44 38.0443 1697.05 48.5152C1705.89 58.7535 1712.52 70.3878 1716.94 83.4183C1721.6 96.4487 1723.92 110.759 1723.92 126.349C1723.92 141.706 1721.6 155.9 1716.94 168.931C1712.52 181.961 1705.89 193.596 1697.05 203.834C1688.44 214.072 1677.74 222.798 1664.94 230.011C1652.37 237.224 1637.95 242.693 1621.66 246.416C1605.37 250.138 1587.34 252 1567.56 252ZM1567.56 205.579C1580.36 205.579 1591.87 204.415 1602.11 202.089C1612.35 199.762 1621.31 196.504 1628.99 192.316C1636.9 187.895 1643.41 182.543 1648.53 176.26C1653.65 169.745 1657.49 162.416 1660.05 154.271C1662.61 145.895 1663.89 136.587 1663.89 126.349C1663.89 116.111 1662.61 106.803 1660.05 98.4266C1657.49 90.0499 1653.65 82.6039 1648.53 76.0886C1643.41 69.5734 1636.9 64.2216 1628.99 60.0332C1621.31 55.6122 1612.35 52.2382 1602.11 49.9114C1591.87 47.5845 1580.36 46.4211 1567.56 46.4211C1554.99 46.4211 1543.47 47.5845 1533 49.9114C1522.77 52.2382 1513.81 55.6122 1506.13 60.0332C1498.45 64.2216 1492.05 69.5734 1486.93 76.0886C1481.81 82.6039 1477.97 90.0499 1475.41 98.4266C1472.85 106.803 1471.57 116.111 1471.57 126.349C1471.57 136.587 1472.85 145.895 1475.41 154.271C1477.97 162.416 1481.81 169.745 1486.93 176.26C1492.05 182.543 1498.45 187.895 1506.13 192.316C1513.81 196.504 1522.77 199.762 1533 202.089C1543.47 204.415 1554.99 205.579 1567.56 205.579Z" fill="white"/>
<path d="M1297.79 248.161V3.83932L1356.78 3.83932V248.161H1297.79Z" fill="white"/>
<path d="M954.555 248.161V3.83932L1100.45 3.83932C1118.37 3.83932 1134.65 5.70082 1149.31 9.42382C1164.21 12.9141 1177.35 18.1496 1188.75 25.1302C1200.16 31.8781 1209.7 40.2548 1217.37 50.2604C1225.05 60.0332 1230.87 71.4349 1234.83 84.4654C1238.78 97.2631 1240.76 111.341 1240.76 126.698C1240.76 141.823 1238.78 155.784 1234.83 168.582C1230.87 181.379 1225.05 192.665 1217.37 202.438C1209.7 212.211 1200.16 220.587 1188.75 227.568C1177.35 234.316 1164.21 239.435 1149.31 242.925C1134.65 246.416 1118.37 248.161 1100.45 248.161H954.555ZM1102.54 201.74C1113.01 201.74 1122.32 200.693 1130.47 198.598C1138.84 196.271 1146.17 193.13 1152.46 189.175C1158.74 184.986 1163.86 179.867 1167.81 173.817C1172 167.767 1175.14 160.787 1177.24 152.875C1179.56 144.964 1180.73 136.238 1180.73 126.698C1180.73 116.925 1179.56 108.083 1177.24 100.172C1175.14 92.0277 1172 84.9307 1167.81 78.8809C1163.86 72.5983 1158.74 67.3629 1152.46 63.1745C1146.17 58.9861 1138.84 55.8449 1130.47 53.7507C1122.32 51.4238 1113.01 50.2604 1102.54 50.2604L1013.54 50.2604V201.74H1102.54Z" fill="white"/>
<path d="M887.19 138.914C887.19 156.831 884.049 172.886 877.766 187.08C871.716 201.042 862.874 212.909 851.24 222.681C839.605 232.222 825.295 239.551 808.309 244.67C791.556 249.557 772.359 252 750.719 252C729.079 252 709.766 249.557 692.78 244.67C676.026 239.551 661.716 232.222 649.849 222.681C638.215 212.909 629.373 201.042 623.323 187.08C617.273 172.886 614.248 156.831 614.248 138.914V3.83932L673.234 3.83932V138.565C673.234 153.457 676.143 165.906 681.96 175.911C687.777 185.684 696.387 193.13 707.788 198.249C719.423 203.136 733.616 205.579 750.37 205.579C763.4 205.579 774.686 204.183 784.226 201.391C793.999 198.598 802.143 194.41 808.658 188.825C815.173 183.008 820.06 176.028 823.317 167.884C826.575 159.507 828.204 149.734 828.204 138.565V3.83932L887.19 3.83932V138.914Z" fill="white"/>
<path d="M407.984 248.161V50.2604L301.529 50.2604V3.83936L574.471 3.83936V50.2604L466.97 50.2604V248.161H407.984Z" fill="white"/>
<path d="M0 173.817L59.6842 165.44C61.7784 174.748 66.1994 182.659 72.9474 189.175C79.928 195.457 89.2354 200.227 100.87 203.485C112.504 206.51 126.582 208.022 143.102 208.022C156.831 208.022 168.582 207.44 178.355 206.277C188.36 204.881 196.388 203.019 202.438 200.693C208.72 198.133 213.258 195.108 216.05 191.618C218.842 188.127 220.238 184.055 220.238 179.402C220.238 173.584 218.609 168.814 215.352 165.091C212.327 161.368 206.859 158.46 198.947 156.366C191.269 154.039 180.449 152.177 166.488 150.781L99.4737 146.244C84.1163 144.848 70.6205 142.404 58.9861 138.914C47.5845 135.191 38.0443 130.537 30.3656 124.953C22.9197 119.136 17.2188 112.271 13.2632 104.36C9.54016 96.4487 7.67867 87.2576 7.67867 76.7867C7.67867 64.9197 10.4709 54.3324 16.0554 45.0249C21.8726 35.4848 30.3656 27.3407 41.5346 20.5928C52.7036 13.8449 66.4321 8.72575 82.7202 5.23545C99.0083 1.74515 117.856 0 139.263 0C166.255 0 189.058 2.79224 207.673 8.37672C226.521 13.7285 241.413 21.8726 252.349 32.8089C263.285 43.5125 270.499 57.0083 273.989 73.2964L214.305 82.0222C211.047 68.9917 203.368 59.4515 191.269 53.4017C179.402 47.1191 161.717 43.9778 138.216 43.9778C125.418 43.9778 114.482 44.6759 105.407 46.072C96.3324 47.2355 89.0028 48.9806 83.4183 51.3075C77.8338 53.6343 73.7618 56.5429 71.2022 60.0332C68.6427 63.5235 67.3629 67.3629 67.3629 71.5512C67.3629 77.3684 68.9917 82.0222 72.2493 85.5125C75.7396 89.0028 81.2077 91.795 88.6537 93.8892C96.0997 95.9834 106.105 97.7285 118.67 99.1246L187.08 103.662C208.255 105.756 225.706 109.596 239.435 115.18C253.163 120.765 263.285 128.443 269.801 138.216C276.548 147.756 279.922 159.623 279.922 173.817C279.922 186.15 277.13 197.202 271.546 206.975C265.961 216.515 257.352 224.659 245.717 231.407C234.316 238.155 220.006 243.274 202.787 246.765C185.568 250.255 165.324 252 142.055 252C120.881 252 102.033 250.488 85.5124 247.463C69.2244 244.205 55.1468 239.435 43.2798 233.152C31.6454 226.637 22.2216 218.493 15.0083 208.72C7.79501 198.715 2.79224 187.08 0 173.817Z" fill="white"/>
</svg>
