<svg width="440" height="172" viewBox="0 0 440 172" fill="none" xmlns="http://www.w3.org/2000/svg">
<path d="M390.089 171.999C383.883 171.999 378.159 171.408 372.914 170.226C367.743 169.045 363.163 167.309 359.174 165.019C355.185 162.729 351.787 159.959 348.98 156.709C346.247 153.458 344.141 149.765 342.664 145.628C341.26 141.492 340.559 136.986 340.559 132.11C340.559 127.161 341.26 122.618 342.664 118.482C344.141 114.345 346.247 110.652 348.98 107.402C351.787 104.077 355.185 101.27 359.174 98.9806C363.163 96.6906 367.743 94.9547 372.914 93.7728C378.159 92.5909 383.883 92 390.089 92C396.368 92 402.092 92.5909 407.263 93.7728C412.434 94.9547 417.014 96.6906 421.003 98.9806C425.066 101.27 428.464 104.077 431.197 107.402C434.004 110.652 436.11 114.345 437.513 118.482C438.991 122.618 439.729 127.161 439.729 132.11C439.729 136.986 438.991 141.492 437.513 145.628C436.11 149.765 434.004 153.458 431.197 156.709C428.464 159.959 425.066 162.729 421.003 165.019C417.014 167.309 412.434 169.045 407.263 170.226C402.092 171.408 396.368 171.999 390.089 171.999ZM390.089 157.263C394.151 157.263 397.808 156.893 401.058 156.155C404.309 155.416 407.153 154.382 409.59 153.052C412.102 151.649 414.17 149.95 415.795 147.955C417.421 145.887 418.639 143.56 419.452 140.975C420.265 138.315 420.671 135.361 420.671 132.11C420.671 128.86 420.265 125.906 419.452 123.246C418.639 120.587 417.421 118.223 415.795 116.155C414.17 114.087 412.102 112.388 409.59 111.058C407.153 109.655 404.309 108.583 401.058 107.845C397.808 107.106 394.151 106.737 390.089 106.737C386.1 106.737 382.443 107.106 379.119 107.845C375.869 108.583 373.025 109.655 370.587 111.058C368.149 112.388 366.118 114.087 364.493 116.155C362.867 118.223 361.649 120.587 360.836 123.246C360.023 125.906 359.617 128.86 359.617 132.11C359.617 135.361 360.023 138.315 360.836 140.975C361.649 143.56 362.867 145.887 364.493 147.955C366.118 149.95 368.149 151.649 370.587 153.052C373.025 154.382 375.869 155.416 379.119 156.155C382.443 156.893 386.1 157.263 390.089 157.263Z" fill="white"/>
<path d="M304.451 170.781V93.2195H323.177V170.781H304.451Z" fill="white"/>
<path d="M195.5 170.781V93.2195H241.817C247.505 93.2195 252.676 93.8104 257.329 94.9923C262.057 96.1003 266.231 97.7624 269.85 99.9784C273.47 102.121 276.499 104.78 278.936 107.956C281.374 111.059 283.221 114.678 284.477 118.815C285.732 122.878 286.36 127.347 286.36 132.222C286.36 137.023 285.732 141.455 284.477 145.518C283.221 149.581 281.374 153.164 278.936 156.266C276.499 159.369 273.47 162.028 269.85 164.244C266.231 166.386 262.057 168.011 257.329 169.119C252.676 170.227 247.505 170.781 241.817 170.781H195.5ZM242.481 156.044C245.806 156.044 248.76 155.712 251.346 155.047C254.005 154.309 256.332 153.311 258.327 152.056C260.321 150.726 261.946 149.101 263.202 147.18C264.532 145.26 265.529 143.044 266.194 140.532C266.932 138.021 267.302 135.251 267.302 132.222C267.302 129.119 266.932 126.312 266.194 123.801C265.529 121.216 264.532 118.963 263.202 117.042C261.946 115.048 260.321 113.386 258.327 112.056C256.332 110.726 254.005 109.729 251.346 109.064C248.76 108.326 245.806 107.956 242.481 107.956H214.226V156.044H242.481Z" fill="white"/>
<path d="M281.648 44.1C281.648 49.7879 280.651 54.8848 278.656 59.3907C276.735 63.8228 273.928 67.5901 270.235 70.6926C266.541 73.7212 261.998 76.048 256.606 77.6731C251.287 79.2244 245.193 80 238.323 80C231.453 80 225.322 79.2244 219.929 77.6731C214.611 76.048 210.068 73.7212 206.3 70.6926C202.607 67.5901 199.8 63.8228 197.879 59.3907C195.958 54.8848 194.998 49.7879 194.998 44.1V1.21948L213.724 1.21948V43.9892C213.724 48.7168 214.648 52.6687 216.494 55.8451C218.341 58.9475 221.074 61.3113 224.694 62.9364C228.387 64.4877 232.893 65.2633 238.212 65.2633C242.349 65.2633 245.932 64.8201 248.96 63.9337C252.063 63.0472 254.648 61.7176 256.717 59.9448C258.785 58.0981 260.336 55.882 261.37 53.2966C262.405 50.6374 262.922 47.5349 262.922 43.9892V1.21948L281.648 1.21948V44.1Z" fill="white"/>
<path d="M129.51 78.7812V15.9562L95.7148 15.9562V1.21948L182.365 1.21948V15.9562L148.237 15.9562V78.7812H129.51Z" fill="white"/>
<path d="M0 55.1796L18.9477 52.5203C19.6125 55.4751 21.0161 57.9866 23.1583 60.0549C25.3744 62.0493 28.3292 63.5637 32.0227 64.5978C35.7162 65.5581 40.1854 66.0382 45.4302 66.0382C49.7885 66.0382 53.519 65.8536 56.6215 65.4842C59.7979 65.041 62.3464 64.4501 64.2671 63.7114C66.2616 62.8988 67.702 61.9385 68.5885 60.8305C69.4749 59.7225 69.9181 58.4298 69.9181 56.9524C69.9181 55.1057 69.401 53.5914 68.3669 52.4095C67.4066 51.2276 65.6706 50.3043 63.159 49.6395C60.7213 48.9008 57.2863 48.3098 52.8541 47.8666L31.5795 46.4262C26.7041 45.983 22.4196 45.2074 18.7261 44.0994C15.1065 42.9175 12.0778 41.4401 9.64006 39.6673C7.27621 37.8206 5.46639 35.6414 4.2106 33.1299C3.02868 30.6184 2.43772 27.7006 2.43772 24.3765C2.43772 20.6092 3.32416 17.2482 5.09704 14.2935C6.9438 11.2649 9.64006 8.67952 13.1858 6.53734C16.7316 4.39516 21.0899 2.77006 26.2609 1.66203C31.4318 0.554011 37.4152 0 44.2113 0C52.7803 0 60.0195 0.886418 65.9291 2.65926C71.9126 4.35823 76.6403 6.94362 80.1122 10.4154C83.5841 13.8134 85.8741 18.0977 86.9821 23.2685L68.0344 26.0386C67.0003 21.9019 64.5625 18.8733 60.7213 16.9528C56.9539 14.9583 51.3398 13.9611 43.8789 13.9611C39.816 13.9611 36.3441 14.1827 33.4632 14.6259C30.5823 14.9953 28.2553 15.5493 26.4825 16.288C24.7096 17.0266 23.4168 17.95 22.6043 19.058C21.7917 20.166 21.3854 21.3849 21.3854 22.7145C21.3854 24.5612 21.9025 26.0386 22.9367 27.1466C24.0447 28.2546 25.7807 29.141 28.1445 29.8058C30.5084 30.4707 33.6848 31.0247 37.6738 31.4679L59.3916 32.9083C66.1138 33.5731 71.6541 34.792 76.0124 36.5648C80.3708 38.3376 83.5841 40.7753 85.6525 43.8777C87.7947 46.9063 88.8658 50.6736 88.8658 55.1796C88.8658 59.0946 87.9794 62.6034 86.2065 65.7058C84.4336 68.7344 81.7004 71.3198 78.0069 73.462C74.3873 75.6042 69.8443 77.2293 64.3779 78.3373C58.9115 79.4453 52.4848 79.9993 45.0978 79.9993C38.3756 79.9993 32.3921 79.5192 27.1473 78.5589C21.9764 77.5247 17.5072 76.0105 13.7399 74.016C10.0463 71.9477 7.0546 69.3623 4.76463 66.2598C2.47465 63.0835 0.886442 59.3901 0 55.1796Z" fill="white"/>
</svg>
