<svg width="1189" height="252" viewBox="0 0 1189 252" fill="none" xmlns="http://www.w3.org/2000/svg">
<path d="M895.383 252V0L955.143 0V111.96L1096.98 0L1178.34 0L1031.1 114.84L1188.42 252L1101.66 252L984.663 151.2L955.143 174.24V252H895.383Z" fill="white"/>
<path d="M620.461 252V0L681.301 0V204.12H845.101V252H620.461Z" fill="white"/>
<path d="M514.778 252L486.698 198H339.818L311.738 252H248.018L383.378 0L445.298 0L581.018 252H514.778ZM462.938 152.64L413.258 56.88L363.578 152.64H462.938Z" fill="white"/>
<path d="M109.8 252L109.8 47.88L0 47.88L0 0L281.52 0V47.88L170.64 47.88V252H109.8Z" fill="white"/>
</svg>
