<svg width="1412" height="252" viewBox="0 0 1412 252" fill="none" xmlns="http://www.w3.org/2000/svg">
<path d="M1239.52 252V47.88L1129.72 47.88V0L1411.24 0V47.88L1300.36 47.88V252H1239.52Z" fill="white"/>
<path d="M1096.76 252L1068.68 198H921.804L893.724 252H830.004L965.364 0L1027.28 0L1163 252H1096.76ZM1044.92 152.64L995.244 56.88L945.564 152.64H1044.92Z" fill="white"/>
<path d="M497.566 252V0L558.406 0V98.28L729.406 98.28V0L790.246 0V252L729.406 252V146.52H558.406V252H497.566Z" fill="white"/>
<path d="M95.4 252L0 0L64.8 0L128.52 182.88L199.44 0L257.4 0L329.4 182.16L392.76 0L456.48 0L361.08 252H302.04L227.52 67.32L153.36 252H95.4Z" fill="white"/>
</svg>
