<svg width="1427" height="252" viewBox="0 0 1427 252" fill="none" xmlns="http://www.w3.org/2000/svg">
<path d="M1142.29 248.161V3.83936L1200.23 3.83936V112.388L1337.75 3.83936L1416.63 3.83936L1273.88 115.18L1426.4 248.161L1342.29 248.161L1228.85 150.432L1200.23 172.77V248.161H1142.29Z" fill="white"/>
<path d="M825.303 248.161V3.83936L991.441 3.83936C1005.87 3.83936 1018.67 5.70085 1029.83 9.42385C1041.24 12.9142 1050.66 18.0333 1058.11 24.7812C1065.78 31.5291 1071.6 39.7895 1075.56 49.5624C1079.75 59.1025 1081.84 69.9225 1081.84 82.0222C1081.84 97.3795 1078.23 110.759 1071.02 122.161C1063.81 133.562 1053.57 142.404 1040.31 148.687C1030.77 153.108 1019.71 156.017 1007.15 157.413L1091.26 248.161L1018.32 248.161L940.483 162.299H884.289V248.161H825.303ZM884.289 48.5153V117.623L980.97 117.623C987.951 117.623 994.001 116.925 999.12 115.529C1004.24 113.9 1008.54 111.69 1012.03 108.898C1015.76 105.873 1018.43 102.266 1020.06 98.0776C1021.92 93.6565 1022.85 88.6538 1022.85 83.0693C1022.85 77.4848 1021.92 72.5984 1020.06 68.41C1018.43 63.9889 1015.87 60.3823 1012.38 57.5901C1008.89 54.5651 1004.47 52.3546 999.12 50.9585C994.001 49.3297 987.951 48.5153 980.97 48.5153L884.289 48.5153Z" fill="white"/>
<path d="M614.13 252C594.584 252 576.551 250.138 560.03 246.416C543.742 242.693 529.315 237.224 516.75 230.011C504.185 222.798 493.482 214.072 484.64 203.834C476.03 193.596 469.399 181.961 464.745 168.931C460.324 155.9 458.113 141.706 458.113 126.349C458.113 110.759 460.324 96.4487 464.745 83.4183C469.399 70.3878 476.03 58.7535 484.64 48.5152C493.482 38.0443 504.185 29.2022 516.75 21.9889C529.315 14.7756 543.742 9.30748 560.03 5.58448C576.551 1.86149 594.584 0 614.13 0C633.908 0 651.942 1.86149 668.23 5.58448C684.518 9.30748 698.944 14.7756 711.509 21.9889C724.307 29.2022 735.011 38.0443 743.62 48.5152C752.462 58.7535 759.094 70.3878 763.515 83.4183C768.169 96.4487 770.496 110.759 770.496 126.349C770.496 141.706 768.169 155.9 763.515 168.931C759.094 181.961 752.462 193.596 743.62 203.834C735.011 214.072 724.307 222.798 711.509 230.011C698.944 237.224 684.518 242.693 668.23 246.416C651.942 250.138 633.908 252 614.13 252ZM614.13 205.579C626.928 205.579 638.446 204.415 648.684 202.089C658.922 199.762 667.881 196.504 675.559 192.316C683.471 187.895 689.986 182.543 695.105 176.26C700.224 169.745 704.063 162.416 706.623 154.271C709.183 145.895 710.462 136.587 710.462 126.349C710.462 116.111 709.183 106.803 706.623 98.4266C704.063 90.0499 700.224 82.6039 695.105 76.0886C689.986 69.5734 683.471 64.2216 675.559 60.0332C667.881 55.6122 658.922 52.2382 648.684 49.9114C638.446 47.5845 626.928 46.4211 614.13 46.4211C601.565 46.4211 590.047 47.5845 579.576 49.9114C569.338 52.2382 560.379 55.6122 552.701 60.0332C545.022 64.2216 538.623 69.5734 533.504 76.0886C528.385 82.6039 524.545 90.0499 521.986 98.4266C519.426 106.803 518.147 116.111 518.147 126.349C518.147 136.587 519.426 145.895 521.986 154.271C524.545 162.416 528.385 169.745 533.504 176.26C538.623 182.543 545.022 187.895 552.701 192.316C560.379 196.504 569.338 199.762 579.576 202.089C590.047 204.415 601.565 205.579 614.13 205.579Z" fill="white"/>
<path d="M92.4931 248.161L0 3.83936L62.8255 3.83936L124.604 181.147L193.363 3.83936L249.557 3.83936L319.363 180.449L380.792 3.83936L442.571 3.83936L350.078 248.161H292.837L220.587 69.1081L148.687 248.161H92.4931Z" fill="white"/>
</svg>
